<svg id="Layer_1" data-name="Layer 1" xmlns="http://www.w3.org/2000/svg" viewBox="0 0 319 450">
  <title>jh-logo</title>
  <g>
    <path fill="currentColor" d="M72,177.84H86.14a83.78,83.78,0,0,0,8.4-.57,83.59,83.59,0,0,1,8.4-.57q8,0,8,10.69v6.11a55.53,55.53,0,0,0-.38,6.11l-.38,21V358.44q0,27.11-1,34.93A49.13,49.13,0,0,1,103.71,410q-14.13,27.49-51.54,27.49-22.53,0-36.85-10.12T1,401.2A17.62,17.62,0,0,1,5.77,388.8a15.27,15.27,0,0,1,11.64-5.15q13,0,13,13,0,9.54-10.31,11.07c-2.54.51-3.82,1.53-3.82,3.06q0,7.25,10.88,13.17a50.74,50.74,0,0,0,24.63,5.92q19.09,0,31.69-9.16t15.27-25.58q1.52-9.16,1.53-37.42V234q0-38.94-2.48-43.91T85,185.1q-2.29,0-12.6.76l-10.31.76H60.94q-7.64,0-7.64-5t6.11-5h1.53Z"/>
    <path fill="currentColor" d="M138.4,213.46q9.92-14.89,19.85-22.53,21-15.65,50-15.65,21.38,0,37.42,8.78,17.94,10.31,23.29,29.4Q272,224.54,272,252v44.29q0,44.67,3.06,53.84t17.56,9.16H310.6q8.39,0,8.4,4.22,0,4.56-7.25,4.56H310.6l-13.36-1.15-15.65-1.15H252.95l-15.27,1.15-12.6,1.15h-1.53q-7.26,0-7.26-4.22,0-4.56,8.4-4.56h16.8q14.5,0,17.56-9.16t3.05-53.84V253.93q0-21-1.15-28.25-2.29-15.65-11.07-25.58Q235,182.91,206,182.91q-26.73,0-45.82,17.18-21.77,19.47-21.76,55.36v40.86q0,44.29,3.06,53.64t17.18,9.36h16.8q8.39,0,8.4,4.22,0,4.56-7.25,4.56h-1.15l-13-1.15-15.27-1.15H97.56l-22.45,1.15-13.36,1.15H60.6q-7.26,0-7.25-4.22,0-4.56,8.4-4.56h46.11q14.5,0,17.56-9.19t3.05-54V68.42q0-37.91-2.86-43.28t-12.79-5.36c-3.57,0-35.55.36-40.38,1.07Q61.75,22.46,61,22.45q-7.64,0-7.64-5t6.87-5h69q9.16,0,9.16,9.16Z"/>
    <path fill="currentColor" d="M100.65,118.28a12,12,0,0,1,9.16,4.2,14.29,14.29,0,0,1,3.82,9.93,13.25,13.25,0,0,1-4,9.74,13.72,13.72,0,0,1-10.12,4,12.19,12.19,0,0,1-9.16-4,13.59,13.59,0,0,1-3.82-9.74,13.9,13.9,0,0,1,4-9.93A13.4,13.4,0,0,1,100.65,118.28Z"/>
  </g>
</svg>
